<svg width="16" height="16" viewBox="0 0 16 16" fill="none" xmlns="http://www.w3.org/2000/svg">
<path d="M4.71416 8.57224H7.42844V11.2865C7.42844 11.3651 7.49273 11.4294 7.5713 11.4294H8.42844C8.50701 11.4294 8.5713 11.3651 8.5713 11.2865V8.57224H11.2856C11.3642 8.57224 11.4284 8.50796 11.4284 8.42938V7.57224C11.4284 7.49367 11.3642 7.42938 11.2856 7.42938H8.5713V4.7151C8.5713 4.63653 8.50701 4.57224 8.42844 4.57224H7.5713C7.49273 4.57224 7.42844 4.63653 7.42844 4.7151V7.42938H4.71416C4.63559 7.42938 4.5713 7.49367 4.5713 7.57224V8.42938C4.5713 8.50796 4.63559 8.57224 4.71416 8.57224Z" fill="#999999"/>
<path d="M14.5717 0.857414H1.42885C1.11278 0.857414 0.857422 1.11277 0.857422 1.42884V14.5717C0.857422 14.8878 1.11278 15.1431 1.42885 15.1431H14.5717C14.8878 15.1431 15.1431 14.8878 15.1431 14.5717V1.42884C15.1431 1.11277 14.8878 0.857414 14.5717 0.857414ZM13.8574 13.8574H2.14314V2.14313H13.8574V13.8574Z" fill="#999999"/>
</svg>
